<?xml version="1.0" standalone="no"?>
<!DOCTYPE svg PUBLIC "-//W3C//DTD SVG 20010904//EN"
 "http://www.w3.org/TR/2001/REC-SVG-20010904/DTD/svg10.dtd">
<svg version="1.0" xmlns="http://www.w3.org/2000/svg"
 width="512.000000pt" height="512.000000pt" viewBox="0 0 512.000000 512.000000"
 preserveAspectRatio="xMidYMid meet">

<g transform="translate(0.000000,512.000000) scale(0.100000,-0.100000)"
fill="#000000" stroke="none">
<path d="M2527 4784 c-59 -18 -122 -79 -157 -149 -22 -46 -25 -64 -28 -212
l-4 -163 -1034 0 c-1117 0 -1072 2 -1122 -53 -13 -14 -26 -42 -29 -64 -3 -23
42 -340 116 -818 132 -852 131 -845 205 -894 37 -24 48 -26 190 -31 l151 -5
57 -358 c53 -341 58 -361 85 -395 16 -21 49 -47 73 -59 41 -21 57 -23 230 -23
l186 0 36 -232 c41 -259 54 -291 133 -332 38 -20 58 -21 382 -24 l342 -3 3
-217 c3 -207 4 -219 28 -267 13 -27 43 -69 66 -92 78 -77 25 -74 1120 -71
l970 3 49 26 c59 30 116 100 139 171 14 46 16 236 16 2038 0 1802 -2 1992 -16
2038 -23 71 -80 141 -139 171 l-49 26 -976 2 c-840 2 -982 0 -1023 -13z m2101
-2166 l-3 -1693 -1090 0 -1090 0 -3 1693 -2 1692 1095 0 1095 0 -2 -1692z
m-2290 1210 l2 -397 -777 -3 c-727 -3 -780 -4 -811 -21 -43 -23 -72 -72 -72
-121 0 -35 113 -780 127 -833 5 -23 5 -23 -128 -23 -161 0 -200 15 -236 90
-29 62 -269 1593 -255 1631 12 31 43 58 78 69 16 4 488 8 1049 7 l1020 -2 3
-397z m2 -713 l0 -275 -475 0 c-516 0 -520 0 -563 -55 -42 -53 -42 -50 63
-715 14 -85 36 -224 49 -309 14 -85 23 -158 20 -163 -3 -4 -80 -8 -172 -8
-140 0 -173 3 -207 19 -48 21 -91 69 -99 108 -3 16 -60 375 -126 799 -132 846
-129 816 -66 855 30 18 62 19 804 19 l772 0 0 -275z m-5 -1210 l0 -895 -333 0
c-375 0 -383 1 -428 70 -22 33 -38 121 -149 830 -112 717 -122 797 -110 826
27 66 9 64 540 64 l480 0 0 -895z m1474 -1159 c62 -59 62 -133 0 -192 l-30
-29 -244 0 -244 0 -30 29 c-41 39 -56 86 -42 129 11 34 52 79 81 90 8 3 119 5
247 4 l232 -2 30 -29z"/>
<path d="M3274 726 c-28 -28 -34 -42 -34 -76 0 -34 6 -48 34 -76 l34 -34 227
0 227 0 34 34 c28 28 34 42 34 76 0 34 -6 48 -34 76 l-34 34 -227 0 -227 0
-34 -34z"/>
</g>
</svg>
